Coordinates
version=1
nRows=10
nColumns=40
inDegrees=yes

Units are S.I. units (second, meters, Newtons, ...)
Angles are in degrees.

endheader
time	pelvis_tilt	pelvis_list	pelvis_rotation	pelvis_tx	pelvis_ty	pelvis_tz	hip_flexion_r	hip_adduction_r	hip_rotation_r	knee_angle_r	knee_angle_r_beta	ankle_angle_r	subtalar_angle_r	mtp_angle_r	hip_flexion_l	hip_adduction_l	hip_rotation_l	knee_angle_l	knee_angle_l_beta	ankle_angle_l	subtalar_angle_l	mtp_angle_l	lumbar_extension	lumbar_bending	lumbar_rotation	arm_flex_r	arm_add_r	arm_rot_r	elbow_flex_r	pro_sup_r	wrist_flex_r	wrist_dev_r	arm_flex_l	arm_add_l	arm_rot_l	elbow_flex_l	pro_sup_l	wrist_flex_l	wrist_dev_l
     30.41000000	     -3.85265954	     -3.86965424	      8.10040887	      1.03598460	      0.92516598	      0.48852187	      3.56727343	      3.07803425	    -17.48783289	     13.91809825	     13.91809825	     15.73296168	     -2.69497847	     -4.26233094	     28.42282771	     -7.74363154	     -1.59190059	     20.89282331	     20.89282331	      3.85825157	     -8.89497749	      2.99939245	     -8.67727563	      4.89651287	      2.82939165	     31.48974603	    -17.83517886	     -3.70725259	     87.53233502	     44.19028516	      0.00000000	      0.00000000	      0.91682947	    -11.35588831	     -7.76496594	     32.15457784	     46.26396380	      0.00000000	      0.00000000
     30.42385714	     -3.82403161	     -3.99919438	      7.88943336	      1.03610294	      0.92462099	      0.48724938	      3.13212951	      3.17562226	    -17.32933807	     13.89375789	     13.89375789	     15.96517701	     -2.55127765	     -4.32707641	     27.81343541	     -7.80410583	     -2.06642193	     21.35917861	     21.35917861	      3.58125806	     -9.37643809	      3.09252763	     -8.42747696	      4.95709408	      2.97080809	     31.10540892	    -17.50193375	     -3.55932978	     87.36749395	     44.19184158	      0.00000000	      0.00000000	      1.07769013	    -11.43785369	     -7.78344144	     32.23676698	     46.26850558	      0.00000000	      0.00000000
     30.43771429	     -3.60662676	     -4.15623857	      7.69591718	      1.03645352	      0.92438025	      0.48580545	      2.28937539	      3.34980862	    -17.35370911	     13.49665019	     13.49665019	     16.12213856	     -1.93529078	     -4.20965242	     27.08679320	     -7.84471178	     -2.00637857	     21.93887508	     21.93887508	      3.38115078	    -10.48001802	      3.07385019	     -8.33490112	      5.06938578	      3.24033950	     30.71161346	    -17.18209752	     -3.62003690	     86.44350777	     44.23684443	      0.00000000	      0.00000000	      1.30274284	    -11.50743674	     -7.81692579	     32.47367389	     46.27268682	      0.00000000	      0.00000000
     30.45157143	     -3.49709163	     -4.24362728	      7.47729528	      1.03670937	      0.92413620	      0.48423539	      1.71527494	      3.35585178	    -17.40467298	     13.42327172	     13.42327172	     16.38357847	     -1.33992338	     -4.06097908	     26.40193601	     -7.81522270	     -1.94699335	     22.27445165	     22.27445165	      3.20486700	    -11.49080036	      3.07317865	     -8.15869357	      5.05586104	      3.29262843	     30.35327325	    -16.68792297	     -3.71782775	     85.23564394	     44.29888692	      0.00000000	      0.00000000	      1.43877008	    -11.60317420	     -7.83077771	     32.75716193	     46.27052647	      0.00000000	      0.00000000
     30.46542857	     -3.46151026	     -4.32106642	      7.22641093	      1.03684538	      0.92386256	      0.48260418	      1.33849918	      3.32739050	    -17.21283940	     13.53832798	     13.53832798	     16.54796053	     -1.21000337	     -4.10468822	     25.87624433	     -7.86133473	     -2.11892624	     22.61799432	     22.61799432	      3.38678287	    -11.89409750	      3.01464622	     -7.99185591	      5.09340243	      3.27267196	     29.72141720	    -16.32937320	     -3.55589153	     84.93015985	     44.30305373	      0.00000000	      0.00000000	      1.63994544	    -11.71976362	     -7.84399000	     32.87052430	     46.27494744	      0.00000000	      0.00000000
     30.47928571	     -3.33007447	     -4.35715172	      7.02388956	      1.03688190	      0.92390626	      0.48071340	      0.85138977	      3.21041341	    -17.29376700	     13.66298015	     13.66298015	     16.73926872	     -0.67027804	     -3.86056072	     25.39301830	     -7.78080408	     -1.81250900	     23.06895848	     23.06895848	      3.54459763	    -12.84625841	      3.19282696	     -7.88163202	      5.01596080	      3.50892959	     29.17732556	    -16.06659937	     -3.72253441	     83.05298148	     44.38586866	      0.00000000	      0.00000000	      1.89254898	    -11.78871422	     -7.81173162	     33.38728629	     46.26871708	      0.00000000	      0.00000000
     30.49314286	     -3.27777260	     -4.35395220	      6.81286919	      1.03679021	      0.92396715	      0.47870268	      0.58676507	      2.99830919	    -17.24046685	     14.03869790	     14.03869790	     16.91602104	     -0.36318854	     -3.62449733	     25.02758385	     -7.70370354	     -1.67593636	     23.46291183	     23.46291183	      3.95525419	    -13.34466778	      3.35185230	     -7.76165197	      4.90045431	      3.42627004	     28.66299651	    -15.67942639	     -3.75047976	     81.53978385	     44.45198439	      0.00000000	      0.00000000	      2.06129453	    -11.90813087	     -7.73648555	     33.85589397	     46.25566008	      0.00000000	      0.00000000
     30.50700000	     -3.17186773	     -4.33953221	      6.64389484	      1.03663407	      0.92421972	      0.47646417	      0.22089218	      2.80450693	    -17.14916508	     14.29554400	     14.29554400	     16.98740337	     -0.33328032	     -3.60221306	     24.65876773	     -7.63616695	     -1.63722573	     23.83776938	     23.83776938	      4.41229337	    -13.66040281	      3.24750598	     -7.75245468	      4.90385697	      3.33561595	     27.74694015	    -15.35107868	     -3.58217723	     80.90814704	     44.46687797	      0.00000000	      0.00000000	      2.33783645	    -12.01975364	     -7.72555345	     34.07813223	     46.25747379	      0.00000000	      0.00000000
     30.52085714	     -3.05659276	     -4.32972841	      6.49580058	      1.03640876	      0.92459041	      0.47400217	     -0.08360193	      2.57373513	    -17.03071502	     14.68468544	     14.68468544	     17.00407302	     -0.30338242	     -3.59376941	     24.32017738	     -7.54979797	     -1.53314927	     24.21628275	     24.21628275	      4.91553609	    -13.94673555	      3.14109332	     -7.76873795	      4.89356740	      3.29734071	     26.74072250	    -15.16942964	     -3.45976034	     80.04894925	     44.48992270	      0.00000000	      0.00000000	      2.70648484	    -12.07725784	     -7.70162349	     34.38359350	     46.25916633	      0.00000000	      0.00000000
     30.53471429	     -2.98952762	     -4.28340361	      6.31281382	      1.03596965	      0.92497115	      0.47146137	     -0.20102775	      2.24361423	    -16.95011726	     15.31103460	     15.31103460	     17.04085518	     -0.32578089	     -3.58600367	     24.05050052	     -7.42591858	     -1.49399547	     24.59014421	     24.59014421	      5.48236309	    -14.21959271	      3.12290845	     -7.77668368	      4.80402565	      3.43686287	     25.74395945	    -15.24618461	     -3.44805761	     78.61704354	     44.53734830	      0.00000000	      0.00000000	      3.17545679	    -12.08741904	     -7.63093262	     34.88606814	     46.25598282	      0.00000000	      0.00000000
